<svg version="1.1" xmlns="http://www.w3.org/2000/svg" viewBox="0 0 1401.9305758426117 630.6612257256091" width="1401.9305758426117" height="630.6612257256091">
  <!-- svg-source:excalidraw -->
  
  <defs>
    <style class="style-fonts">
      @font-face {
        font-family: "Virgil";
        src: url("https://nextcloud.home.suunhuy.com/custom_apps/whiteboard/dist//dist/excalidraw-assets/Virgil.woff2");
      }
      @font-face {
        font-family: "Cascadia";
        src: url("https://nextcloud.home.suunhuy.com/custom_apps/whiteboard/dist//dist/excalidraw-assets/Cascadia.woff2");
      }
      @font-face {
        font-family: "Assistant";
        src: url("https://nextcloud.home.suunhuy.com/custom_apps/whiteboard/dist//dist/excalidraw-assets/Assistant-Regular.woff2");
      }
    </style>
    
  </defs>
  <rect x="0" y="0" width="1401.9305758426117" height="630.6612257256091" fill="#f5faff"></rect><g stroke-linecap="round" transform="translate(95.85067415738831 161.50401186156722) rotate(0 161.81046605681797 43.62788770662877)"><path d="M0 0 C78.33 0.04, 154.37 0.15, 323.62 0 M0 0 C127.21 -0.5, 254.57 0.08, 323.62 0 M323.62 0 C324.73 23.62, 325.62 50.81, 323.62 87.26 M323.62 0 C322.85 24.99, 323.03 50.19, 323.62 87.26 M323.62 87.26 C196.99 87.38, 67.98 87.84, 0 87.26 M323.62 87.26 C203.95 86.87, 85.11 85.98, 0 87.26 M0 87.26 C0.22 60.88, -2.55 36.73, 0 0 M0 87.26 C0 61, -1.35 33.58, 0 0" stroke="#1e1e1e" stroke-width="1" fill="none"></path></g><g transform="translate(181.7884137737766 193.131899568196) rotate(0 75.87272644042969 12)"><text x="75.87272644042969" y="0" font-family="Cascadia, Segoe UI Emoji" font-size="20px" fill="#1e1e1e" text-anchor="middle" style="white-space: pre;" direction="ltr" dominant-baseline="text-before-edge">528B codeword</text></g><g stroke-linecap="round" transform="translate(419.72348958030386 161.50401186156722) rotate(0 161.81046605681797 43.62788770662877)"><path d="M0 0 C111.99 0.64, 223.7 0.96, 323.62 0 M0 0 C100.02 1.91, 200.37 1.63, 323.62 0 M323.62 0 C323.15 17.86, 322.55 38.85, 323.62 87.26 M323.62 0 C324.45 27.19, 323.89 53.52, 323.62 87.26 M323.62 87.26 C237.94 86.05, 153.52 86.09, 0 87.26 M323.62 87.26 C246.63 86.1, 169.88 86.31, 0 87.26 M0 87.26 C-0.01 66.36, -1.18 45.78, 0 0 M0 87.26 C-0.61 53.05, 0.44 19.37, 0 0" stroke="#1e1e1e" stroke-width="1" fill="none"></path></g><g transform="translate(505.66122919669215 193.131899568196) rotate(0 75.87272644042969 12)"><text x="75.87272644042969" y="0" font-family="Cascadia, Segoe UI Emoji" font-size="20px" fill="#1e1e1e" text-anchor="middle" style="white-space: pre;" direction="ltr" dominant-baseline="text-before-edge">528B codeword</text></g><g stroke-linecap="round" transform="translate(744.4368283060601 161.34453516440811) rotate(0 161.81046605681797 43.62788770662877)"><path d="M0 0 C78.51 -0.54, 155.57 0.34, 323.62 0 M0 0 C97.19 1.19, 195.36 0.56, 323.62 0 M323.62 0 C323.22 22.18, 322.59 41.42, 323.62 87.26 M323.62 0 C322.87 25.19, 322.41 51.28, 323.62 87.26 M323.62 87.26 C209.87 88.21, 97.06 88.38, 0 87.26 M323.62 87.26 C220.94 87.69, 119.05 88.03, 0 87.26 M0 87.26 C2.7 62.21, 1.28 35.09, 0 0 M0 87.26 C-1.49 60.94, 0.02 34.04, 0 0" stroke="#1e1e1e" stroke-width="1" fill="none"></path></g><g transform="translate(830.3745679224484 192.97242287103688) rotate(0 75.87272644042969 12)"><text x="75.87272644042969" y="0" font-family="Cascadia, Segoe UI Emoji" font-size="20px" fill="#1e1e1e" text-anchor="middle" style="white-space: pre;" direction="ltr" dominant-baseline="text-before-edge">528B codeword</text></g><g stroke-linecap="round" transform="translate(1068.3096437289755 161.34453516440811) rotate(0 161.81046605681797 43.62788770662877)"><path d="M0 0 C66.42 0.5, 132.25 -0.42, 323.62 0 M0 0 C111.63 0.47, 224.34 1.06, 323.62 0 M323.62 0 C323.38 32.28, 321.59 65.54, 323.62 87.26 M323.62 0 C323.38 20.41, 323.4 40.12, 323.62 87.26 M323.62 87.26 C231.38 87.67, 139.34 86.37, 0 87.26 M323.62 87.26 C255.08 85.7, 186.64 87.02, 0 87.26 M0 87.26 C-0.13 59.3, 0.99 26.61, 0 0 M0 87.26 C-0.36 60.12, -1.47 33.52, 0 0" stroke="#1e1e1e" stroke-width="1" fill="none"></path></g><g transform="translate(1154.247383345364 192.97242287103688) rotate(0 75.87272644042969 12)"><text x="75.87272644042969" y="0" font-family="Cascadia, Segoe UI Emoji" font-size="20px" fill="#1e1e1e" text-anchor="middle" style="white-space: pre;" direction="ltr" dominant-baseline="text-before-edge">528B codeword</text></g><g stroke-opacity="0.5" fill-opacity="0.5" transform="translate(98.61781301801534 126.4279087737703) rotate(0 304.0750170634108 -33.44205890310428)" stroke="none"><path fill="#1e1e1e" d="M -0.86,-1.29 Q -0.86,-1.29 2.37,-3.41 5.62,-5.53 60.30,-16.13 114.97,-26.73 154.92,-29.77 194.87,-32.81 225.41,-32.32 255.95,-31.82 284.23,-30.54 312.51,-29.25 341.24,-28.70 369.97,-28.16 398.56,-27.92 427.16,-27.69 457.03,-31.50 486.90,-35.31 511.31,-41.19 535.72,-47.07 553.58,-52.06 571.44,-57.05 580.47,-59.53 589.50,-62.01 594.35,-63.76 599.21,-65.51 602.68,-66.71 606.15,-67.91 606.40,-67.95 606.65,-67.98 606.90,-67.94 607.15,-67.89 607.38,-67.76 607.60,-67.64 607.77,-67.45 607.94,-67.26 608.04,-67.02 608.14,-66.79 608.16,-66.53 608.18,-66.28 608.12,-66.03 608.06,-65.79 607.92,-65.57 607.79,-65.36 607.59,-65.20 607.39,-65.04 607.15,-64.95 606.91,-64.86 606.65,-64.85 606.40,-64.85 606.16,-64.92 605.91,-64.99 605.70,-65.14 605.50,-65.29 605.35,-65.50 605.20,-65.71 605.12,-65.95 605.05,-66.19 605.06,-66.45 605.06,-66.70 605.15,-66.94 605.24,-67.18 605.40,-67.38 605.56,-67.58 605.77,-67.72 605.99,-67.86 606.24,-67.92 606.48,-67.98 606.74,-67.96 606.99,-67.94 607.23,-67.84 607.46,-67.74 607.65,-67.57 607.84,-67.40 607.97,-67.17 608.09,-66.95 608.14,-66.70 608.19,-66.45 608.15,-66.20 608.12,-65.95 608.01,-65.72 607.89,-65.49 607.71,-65.31 607.53,-65.13 607.30,-65.01 607.08,-64.90 607.08,-64.90 607.08,-64.90 603.59,-63.96 600.10,-63.03 595.15,-61.24 590.20,-59.46 581.18,-56.98 572.16,-54.50 554.25,-49.49 536.34,-44.49 511.79,-38.57 487.23,-32.66 457.19,-28.83 427.14,-25.01 398.53,-25.23 369.92,-25.46 341.16,-25.99 312.39,-26.53 284.15,-27.79 255.90,-29.06 225.49,-29.53 195.08,-30.00 155.30,-26.95 115.52,-23.89 61.35,-13.45 7.19,-3.01 4.03,-0.85 0.86,1.29 0.69,1.38 0.53,1.46 0.34,1.51 0.16,1.55 -0.02,1.55 -0.21,1.54 -0.39,1.49 -0.57,1.45 -0.74,1.36 -0.90,1.27 -1.04,1.14 -1.18,1.01 -1.29,0.86 -1.39,0.70 -1.45,0.52 -1.52,0.34 -1.54,0.16 -1.56,-0.02 -1.53,-0.21 -1.51,-0.39 -1.44,-0.57 -1.37,-0.74 -1.26,-0.90 -1.15,-1.05 -1.00,-1.17 -0.86,-1.29 -0.86,-1.29 L -0.86,-1.29 Z"></path></g><g stroke-opacity="0.5" fill-opacity="0.5" transform="translate(705.5292523706479 58.30519619337275) rotate(0 331.9433994826644 38.39643799986044)" stroke="none"><path fill="#1e1e1e" d="M 0.20,-1.54 Q 0.20,-1.54 26.90,2.04 53.61,5.64 100.89,9.66 148.16,13.69 187.13,16.12 226.09,18.55 259.02,19.59 291.95,20.63 321.63,22.14 351.31,23.66 377.82,25.37 404.33,27.09 426.99,28.89 449.66,30.69 468.91,32.52 488.17,34.36 503.12,35.85 518.06,37.34 528.00,38.70 537.93,40.05 544.99,40.97 552.05,41.90 557.86,42.29 563.67,42.69 569.69,42.85 575.71,43.02 581.87,43.45 588.03,43.88 594.21,44.42 600.40,44.96 606.75,47.36 613.10,49.77 618.92,51.84 624.74,53.91 629.43,56.24 634.11,58.58 637.17,60.29 640.23,61.99 643.31,63.79 646.38,65.58 648.83,67.45 651.27,69.33 653.32,70.80 655.38,72.28 656.86,72.76 658.34,73.24 661.31,74.18 664.28,75.13 664.48,75.30 664.67,75.48 664.80,75.70 664.93,75.93 664.98,76.19 665.03,76.44 665.00,76.70 664.96,76.96 664.85,77.20 664.73,77.43 664.55,77.62 664.36,77.80 664.13,77.92 663.90,78.04 663.64,78.07 663.38,78.11 663.12,78.06 662.86,78.01 662.64,77.88 662.41,77.76 662.23,77.56 662.06,77.37 661.95,77.13 661.85,76.89 661.83,76.63 661.80,76.37 661.87,76.11 661.93,75.86 662.07,75.64 662.21,75.42 662.41,75.25 662.62,75.09 662.86,75.00 663.11,74.91 663.37,74.90 663.63,74.89 663.88,74.97 664.13,75.04 664.34,75.19 664.55,75.35 664.71,75.56 664.86,75.77 664.94,76.02 665.02,76.27 665.01,76.53 665.00,76.79 664.91,77.04 664.83,77.28 664.66,77.49 664.50,77.69 664.28,77.83 664.06,77.97 663.81,78.04 663.55,78.10 663.29,78.08 663.03,78.06 662.79,77.96 662.55,77.86 662.55,77.86 662.55,77.86 659.91,76.92 657.27,75.99 655.57,75.20 653.86,74.42 651.76,72.92 649.66,71.41 647.36,69.63 645.06,67.85 642.00,66.07 638.94,64.29 635.94,62.61 632.94,60.93 628.40,58.66 623.85,56.38 618.01,54.30 612.16,52.22 606.15,49.90 600.14,47.57 593.99,47.04 587.84,46.50 581.74,46.08 575.64,45.65 569.56,45.49 563.49,45.32 557.60,44.92 551.71,44.52 544.64,43.60 537.58,42.67 527.69,41.33 517.80,39.99 502.86,38.50 487.92,37.01 468.68,35.19 449.45,33.36 426.80,31.57 404.15,29.78 377.67,28.08 351.18,26.38 321.52,24.89 291.86,23.39 258.89,22.38 225.92,21.36 186.92,18.97 147.92,16.57 100.57,12.58 53.21,8.60 26.50,5.07 -0.20,1.54 -0.38,1.50 -0.57,1.45 -0.73,1.36 -0.90,1.27 -1.04,1.14 -1.18,1.02 -1.28,0.86 -1.39,0.70 -1.45,0.53 -1.52,0.35 -1.54,0.16 -1.56,-0.01 -1.53,-0.20 -1.51,-0.39 -1.44,-0.56 -1.37,-0.74 -1.26,-0.89 -1.15,-1.04 -1.01,-1.17 -0.87,-1.29 -0.70,-1.38 -0.53,-1.46 -0.35,-1.50 -0.16,-1.55 0.01,-1.55 0.20,-1.54 0.20,-1.54 L 0.20,-1.54 Z"></path></g><g stroke-opacity="0.5" fill-opacity="0.5" transform="translate(522.2172257906692 10) rotate(0 182.58999633789062 12)"><text x="0" y="0" font-family="Cascadia, Segoe UI Emoji" font-size="20px" fill="#1e1e1e" text-anchor="start" style="white-space: pre;" direction="ltr" dominant-baseline="text-before-edge">1 page (2048B main + 64B spare)</text></g><g stroke-linecap="round" transform="translate(281.1627007373671 393.1212346349188) rotate(0 203.30339099215098 43.62788770662877)"><path d="M1.21 -0.25 L404.7 1.8 L407.66 89.12 L0.54 88.01" stroke="none" stroke-width="0" fill="#a5d8ff"></path><path d="M0 0 C81.36 -0.81, 165.07 -0.56, 406.61 0 M0 0 C103.15 -2.29, 206.7 -2.02, 406.61 0 M406.61 0 C404.67 33.38, 407.43 69.1, 406.61 87.26 M406.61 0 C406.7 31.38, 407.89 61.67, 406.61 87.26 M406.61 87.26 C318.82 87.35, 230.03 88.7, 0 87.26 M406.61 87.26 C257.54 87.41, 107.32 87.36, 0 87.26 M0 87.26 C0.21 70.06, 0 50.77, 0 0 M0 87.26 C-0.14 54.98, -0.74 24.92, 0 0" stroke="#1e1e1e" stroke-width="1" fill="none"></path></g><g transform="translate(461.12063655984036 424.74912234154755) rotate(0 23.345455169677734 12)"><text x="23.345455169677734" y="0" font-family="Cascadia, Segoe UI Emoji" font-size="20px" fill="#1e1e1e" text-anchor="middle" style="white-space: pre;" direction="ltr" dominant-baseline="text-before-edge">main</text></g><g stroke-linecap="round"><g stroke-opacity="0.5" fill-opacity="0.5" transform="translate(420.6524543071673 261.9572713307364) rotate(0 -67.50341519330306 60.071846548168736)"><path d="M0 0 C-43.18 40.36, -87 78.77, -135.01 120.14" stroke="#1e1e1e" stroke-width="1.5" fill="none" stroke-dasharray="8 9"></path></g></g><mask></mask><g stroke-linecap="round"><g stroke-opacity="0.5" fill-opacity="0.5" transform="translate(748.8800694672644 255.76429745979118) rotate(0 203.12954296700366 63.168333483641334)"><path d="M0 0 C112.72 32.88, 224.47 69.53, 406.26 126.34" stroke="#1e1e1e" stroke-width="1.5" fill="none" stroke-dasharray="8 9"></path></g></g><mask></mask><g transform="translate(273.82810753353647 355.4197541872591) rotate(0 5.889999866485596 12)"><text x="0" y="0" font-family="Cascadia, Segoe UI Emoji" font-size="20px" fill="#1e1e1e" text-anchor="start" style="white-space: pre;" direction="ltr" dominant-baseline="text-before-edge">0</text></g><g stroke-linecap="round" transform="translate(688.3761657681306 393.1212346349188) rotate(0 52.81412592818185 43.62788770662877)"><path d="M0 0 C23.89 0.75, 51.32 -0.32, 105.63 0 M0 0 C25.56 0.17, 49.52 -0.78, 105.63 0 M105.63 0 C106.99 26.78, 104.45 48.21, 105.63 87.26 M105.63 0 C105.19 33.3, 106.36 68.24, 105.63 87.26 M105.63 87.26 C81.79 86.82, 55.37 89.81, 0 87.26 M105.63 87.26 C72.59 86.76, 41.31 87.11, 0 87.26 M0 87.26 C1.4 58.68, 2.05 29.93, 0 0 M0 87.26 C1.29 67.08, -0.27 48.05, 0 0" stroke="#1e1e1e" stroke-width="1" fill="none"></path></g><g transform="translate(706.1721108491445 400.74912234154755) rotate(0 35.01818084716797 36)"><text x="35.01818084716797" y="0" font-family="Cascadia, Segoe UI Emoji" font-size="20px" fill="#1e1e1e" text-anchor="middle" style="white-space: pre;" direction="ltr" dominant-baseline="text-before-edge">Bad </text><text x="35.01818084716797" y="24" font-family="Cascadia, Segoe UI Emoji" font-size="20px" fill="#1e1e1e" text-anchor="middle" style="white-space: pre;" direction="ltr" dominant-baseline="text-before-edge">block </text><text x="35.01818084716797" y="48" font-family="Cascadia, Segoe UI Emoji" font-size="20px" fill="#1e1e1e" text-anchor="middle" style="white-space: pre;" direction="ltr" dominant-baseline="text-before-edge">marker</text></g><g stroke-linecap="round" transform="translate(795.3725058967667 392.8826398607297) rotate(0 87.49477960547517 43.62788770662877)"><path d="M-1.88 -0.61 L174.08 0.1 L176.09 87.35 L-1.23 88.02" stroke="none" stroke-width="0" fill="#a5d8ff"></path><path d="M0 0 C53.8 0.57, 109.9 2.39, 174.99 0 M0 0 C52.1 2.11, 105.37 2.18, 174.99 0 M174.99 0 C176.07 35.48, 175.65 67.54, 174.99 87.26 M174.99 0 C174.68 22.14, 175.89 44.26, 174.99 87.26 M174.99 87.26 C131.91 88.64, 88.56 87, 0 87.26 M174.99 87.26 C130.28 86.92, 84.52 87.73, 0 87.26 M0 87.26 C-2.23 59.98, 0.79 37.07, 0 0 M0 87.26 C1.36 63.08, 1.1 37.42, 0 0" stroke="#1e1e1e" stroke-width="1" fill="none"></path></g><g transform="translate(806.9945590618122 424.51052756735845) rotate(0 75.87272644042969 12)"><text x="75.87272644042969" y="0" font-family="Cascadia, Segoe UI Emoji" font-size="20px" fill="#1e1e1e" text-anchor="middle" style="white-space: pre;" direction="ltr" dominant-baseline="text-before-edge">main continue</text></g><g stroke-linecap="round" transform="translate(971.4915586058004 393.1212346349188) rotate(0 50.95623376689832 43.62788770662877)"><path d="M0 0 C30.03 -0.64, 58.19 -1.18, 101.91 0 M0 0 C35.81 -1.28, 68.94 0.37, 101.91 0 M101.91 0 C101.49 30.7, 103.75 58.8, 101.91 87.26 M101.91 0 C101.9 29.27, 103.39 58.45, 101.91 87.26 M101.91 87.26 C72 85.9, 43.64 86.79, 0 87.26 M101.91 87.26 C73.22 88.83, 44.44 87.18, 0 87.26 M0 87.26 C-0.95 66.03, 1.1 49.67, 0 0 M0 87.26 C-1.17 52.64, -0.69 18.7, 0 0" stroke="#1e1e1e" stroke-width="1" fill="none"></path></g><g transform="translate(1004.9387019491147 424.74912234154755) rotate(0 17.509090423583984 12)"><text x="17.509090423583984" y="0" font-family="Cascadia, Segoe UI Emoji" font-size="20px" fill="#1e1e1e" text-anchor="middle" style="white-space: pre;" direction="ltr" dominant-baseline="text-before-edge">ECC</text></g><g stroke-linecap="round" transform="translate(1075.0107091860582 392.4054503123516) rotate(0 48.479044218520244 43.62788770662877)"><path d="M0 0 C31.06 1.88, 61.43 2.08, 96.96 0 M0 0 C22.05 -0.18, 42.4 -1.35, 96.96 0 M96.96 0 C98.2 30.39, 98.86 57.31, 96.96 87.26 M96.96 0 C97.65 26.65, 96.83 53, 96.96 87.26 M96.96 87.26 C69.27 86.47, 43.59 87.4, 0 87.26 M96.96 87.26 C57.95 87.38, 21.12 86.45, 0 87.26 M0 87.26 C1.08 69.93, -0.03 49.64, 0 0 M0 87.26 C0.95 63.81, -0.22 40.65, 0 0" stroke="#1e1e1e" stroke-width="1" fill="none"></path></g><g transform="translate(1082.6352078113168 424.0333380189804) rotate(0 40.85454559326172 12)"><text x="40.85454559326172" y="0" font-family="Cascadia, Segoe UI Emoji" font-size="20px" fill="#1e1e1e" text-anchor="middle" style="white-space: pre;" direction="ltr" dominant-baseline="text-before-edge">padding</text></g><g transform="translate(671.890625 362.9385050240882) rotate(0 17.670000076293945 12)"><text x="0" y="0" font-family="Cascadia, Segoe UI Emoji" font-size="20px" fill="#1e1e1e" text-anchor="start" style="white-space: pre;" direction="ltr" dominant-baseline="text-before-edge">464</text></g><g transform="translate(776.890625 363.9385050240882) rotate(0 17.670000076293945 12)"><text x="0" y="0" font-family="Cascadia, Segoe UI Emoji" font-size="20px" fill="#1e1e1e" text-anchor="start" style="white-space: pre;" direction="ltr" dominant-baseline="text-before-edge">465</text></g><g transform="translate(965.890625 362.9385050240882) rotate(0 17.670000076293945 12)"><text x="0" y="0" font-family="Cascadia, Segoe UI Emoji" font-size="20px" fill="#1e1e1e" text-anchor="start" style="white-space: pre;" direction="ltr" dominant-baseline="text-before-edge">517</text></g><g transform="translate(1057.890625 364.9385050240882) rotate(0 17.670000076293945 12)"><text x="0" y="0" font-family="Cascadia, Segoe UI Emoji" font-size="20px" fill="#1e1e1e" text-anchor="start" style="white-space: pre;" direction="ltr" dominant-baseline="text-before-edge">524</text></g><g transform="translate(1155.890625 360.9385050240882) rotate(0 17.670000076293945 12)"><text x="0" y="0" font-family="Cascadia, Segoe UI Emoji" font-size="20px" fill="#1e1e1e" text-anchor="start" style="white-space: pre;" direction="ltr" dominant-baseline="text-before-edge">528</text></g><g stroke-opacity="0.7" fill-opacity="0.7" transform="translate(10 425.0400675240882) rotate(0 123.69000244140625 12)"><text x="0" y="0" font-family="Cascadia, Segoe UI Emoji" font-size="20px" fill="#1e1e1e" text-anchor="start" style="white-space: pre;" direction="ltr" dominant-baseline="text-before-edge">the first 3 codewords</text></g><g stroke-linecap="round" transform="translate(283.1627007373671 533.1212346349188) rotate(0 203.30339099215098 43.62788770662877)"><path d="M-0.42 -0.61 L406.66 -0.1 L406.04 87.21 L-0.98 88.1" stroke="none" stroke-width="0" fill="#a5d8ff"></path><path d="M0 0 C156.37 -1.85, 312.85 -2.21, 406.61 0 M0 0 C89.29 1.78, 177.27 1.59, 406.61 0 M406.61 0 C405.36 30.34, 406.82 59.26, 406.61 87.26 M406.61 0 C406.51 26.18, 407.92 50.9, 406.61 87.26 M406.61 87.26 C273.55 89.06, 138.97 89.33, 0 87.26 M406.61 87.26 C274.83 88.95, 142.87 88.42, 0 87.26 M0 87.26 C0.79 56.53, 2.52 26.9, 0 0 M0 87.26 C-1.43 62.5, -1.41 37.55, 0 0" stroke="#1e1e1e" stroke-width="1" fill="none"></path></g><g transform="translate(463.12063655984036 564.7491223415475) rotate(0 23.345455169677734 12)"><text x="23.345455169677734" y="0" font-family="Cascadia, Segoe UI Emoji" font-size="20px" fill="#1e1e1e" text-anchor="middle" style="white-space: pre;" direction="ltr" dominant-baseline="text-before-edge">main</text></g><g stroke-linecap="round" transform="translate(690.3761657681306 533.1212346349188) rotate(0 52.81412592818185 43.62788770662877)"><path d="M0 0 C42.26 0.17, 82.65 -1.44, 105.63 0 M0 0 C37.88 -0.19, 73.82 0.27, 105.63 0 M105.63 0 C104.54 30.67, 105.21 62.6, 105.63 87.26 M105.63 0 C105.96 17.16, 106.33 36.23, 105.63 87.26 M105.63 87.26 C70.57 87.54, 36.04 89.26, 0 87.26 M105.63 87.26 C64.37 88.69, 25.64 87.43, 0 87.26 M0 87.26 C-0.41 55.11, -1.35 20.6, 0 0 M0 87.26 C0.7 53.93, 0.15 20.85, 0 0" stroke="#1e1e1e" stroke-width="1" fill="none"></path></g><g transform="translate(708.1721108491445 540.7491223415475) rotate(0 35.01818084716797 36)"><text x="35.01818084716797" y="0" font-family="Cascadia, Segoe UI Emoji" font-size="20px" fill="#1e1e1e" text-anchor="middle" style="white-space: pre;" direction="ltr" dominant-baseline="text-before-edge">Bad </text><text x="35.01818084716797" y="24" font-family="Cascadia, Segoe UI Emoji" font-size="20px" fill="#1e1e1e" text-anchor="middle" style="white-space: pre;" direction="ltr" dominant-baseline="text-before-edge">block </text><text x="35.01818084716797" y="48" font-family="Cascadia, Segoe UI Emoji" font-size="20px" fill="#1e1e1e" text-anchor="middle" style="white-space: pre;" direction="ltr" dominant-baseline="text-before-edge">marker</text></g><g stroke-linecap="round" transform="translate(797.3725058967667 532.8826398607297) rotate(0 53.99477960547517 43.62788770662877)"><path d="M-0.63 0.52 L108.3 -1.5 L109.55 85.94 L0.57 85.49" stroke="none" stroke-width="0" fill="#a5d8ff"></path><path d="M0 0 C35.64 0.28, 71.53 1.53, 107.99 0 M0 0 C33.58 -0.06, 65.98 1.3, 107.99 0 M107.99 0 C109.9 32.71, 106.55 70.59, 107.99 87.26 M107.99 0 C107.1 33.61, 107.32 67.22, 107.99 87.26 M107.99 87.26 C82.45 86.76, 54.76 86.53, 0 87.26 M107.99 87.26 C70.85 88.08, 35.18 88.28, 0 87.26 M0 87.26 C1.46 61.36, -1.64 30.44, 0 0 M0 87.26 C0.38 67.47, 0.7 47.72, 0 0" stroke="#1e1e1e" stroke-width="1" fill="none"></path></g><g transform="translate(804.2472865703571 552.5105275673584) rotate(0 47.119998931884766 24)"><text x="47.119998931884766" y="0" font-family="Cascadia, Segoe UI Emoji" font-size="20px" fill="#1e1e1e" text-anchor="middle" style="white-space: pre;" direction="ltr" dominant-baseline="text-before-edge">main </text><text x="47.119998931884766" y="24" font-family="Cascadia, Segoe UI Emoji" font-size="20px" fill="#1e1e1e" text-anchor="middle" style="white-space: pre;" direction="ltr" dominant-baseline="text-before-edge">continue</text></g><g stroke-linecap="round" transform="translate(973.4915586058004 533.1212346349188) rotate(0 50.95623376689832 43.62788770662877)"><path d="M0 0 C22.12 0.65, 39.68 -1.61, 101.91 0 M0 0 C30.16 0.11, 59.95 -0.75, 101.91 0 M101.91 0 C101.08 28.02, 100.33 58.15, 101.91 87.26 M101.91 0 C102.02 26.58, 102.55 53.03, 101.91 87.26 M101.91 87.26 C64.91 88.95, 24.42 88.44, 0 87.26 M101.91 87.26 C79 86.02, 56.61 86.39, 0 87.26 M0 87.26 C-1.24 61.87, -1.5 35.29, 0 0 M0 87.26 C0.65 55.59, 0.48 22.27, 0 0" stroke="#1e1e1e" stroke-width="1" fill="none"></path></g><g transform="translate(1006.9387019491147 564.7491223415475) rotate(0 17.509090423583984 12)"><text x="17.509090423583984" y="0" font-family="Cascadia, Segoe UI Emoji" font-size="20px" fill="#1e1e1e" text-anchor="middle" style="white-space: pre;" direction="ltr" dominant-baseline="text-before-edge">ECC</text></g><g stroke-linecap="round" transform="translate(1077.0107091860582 532.4054503123516) rotate(0 48.479044218520244 43.62788770662877)"><path d="M0 0 C21 0.83, 45.56 1.63, 96.96 0 M0 0 C37.62 -1.31, 76.44 -1.34, 96.96 0 M96.96 0 C99.52 26.67, 98.03 51, 96.96 87.26 M96.96 0 C97.12 33.61, 96.93 65.54, 96.96 87.26 M96.96 87.26 C77.94 86.8, 57.76 85.7, 0 87.26 M96.96 87.26 C63.31 88.46, 30.04 88.54, 0 87.26 M0 87.26 C-1.86 65.84, 0.34 46.05, 0 0 M0 87.26 C-0.11 67.6, 0.59 49.06, 0 0" stroke="#1e1e1e" stroke-width="1" fill="none"></path></g><g transform="translate(1084.6352078113168 564.0333380189804) rotate(0 40.85454559326172 12)"><text x="40.85454559326172" y="0" font-family="Cascadia, Segoe UI Emoji" font-size="20px" fill="#1e1e1e" text-anchor="middle" style="white-space: pre;" direction="ltr" dominant-baseline="text-before-edge">padding</text></g><g transform="translate(673.890625 502.9385050240882) rotate(0 17.670000076293945 12)"><text x="0" y="0" font-family="Cascadia, Segoe UI Emoji" font-size="20px" fill="#1e1e1e" text-anchor="start" style="white-space: pre;" direction="ltr" dominant-baseline="text-before-edge">464</text></g><g transform="translate(778.890625 503.9385050240882) rotate(0 17.670000076293945 12)"><text x="0" y="0" font-family="Cascadia, Segoe UI Emoji" font-size="20px" fill="#1e1e1e" text-anchor="start" style="white-space: pre;" direction="ltr" dominant-baseline="text-before-edge">465</text></g><g transform="translate(967.890625 502.9385050240882) rotate(0 17.670000076293945 12)"><text x="0" y="0" font-family="Cascadia, Segoe UI Emoji" font-size="20px" fill="#1e1e1e" text-anchor="start" style="white-space: pre;" direction="ltr" dominant-baseline="text-before-edge">517</text></g><g transform="translate(1059.890625 504.9385050240882) rotate(0 17.670000076293945 12)"><text x="0" y="0" font-family="Cascadia, Segoe UI Emoji" font-size="20px" fill="#1e1e1e" text-anchor="start" style="white-space: pre;" direction="ltr" dominant-baseline="text-before-edge">524</text></g><g stroke-opacity="0.7" fill-opacity="0.7" transform="translate(61 561.0400675240883) rotate(0 94.23999786376953 12)"><text x="0" y="0" font-family="Cascadia, Segoe UI Emoji" font-size="20px" fill="#1e1e1e" text-anchor="start" style="white-space: pre;" direction="ltr" dominant-baseline="text-before-edge">the 4th codeword</text></g><g stroke-linecap="round" transform="translate(906.0107091860583 533.4054503123516) rotate(0 33.479044218520244 43.62788770662877)"><path d="M0 0 C17.68 0.66, 32.7 -2.39, 66.96 0 M0 0 C23.42 -0.94, 47.14 -0.87, 66.96 0 M66.96 0 C64.76 30.05, 66.03 63.52, 66.96 87.26 M66.96 0 C67.08 24.72, 66.19 49.21, 66.96 87.26 M66.96 87.26 C53.42 86.95, 36.95 87.26, 0 87.26 M66.96 87.26 C49.09 86.17, 32.13 87.5, 0 87.26 M0 87.26 C-0.73 59.63, -0.48 34.57, 0 0 M0 87.26 C-1.29 58.18, -0.8 29.25, 0 0" stroke="#1e1e1e" stroke-width="1" fill="none"></path></g><g transform="translate(915.9297539386362 553.0333380189804) rotate(0 23.559999465942383 24)"><text x="23.559999465942383" y="0" font-family="Cascadia, Segoe UI Emoji" font-size="20px" fill="#1e1e1e" text-anchor="middle" style="white-space: pre;" direction="ltr" dominant-baseline="text-before-edge">padd</text><text x="23.559999465942383" y="24" font-family="Cascadia, Segoe UI Emoji" font-size="20px" fill="#1e1e1e" text-anchor="middle" style="white-space: pre;" direction="ltr" dominant-baseline="text-before-edge">ing</text></g><g transform="translate(271.82810753353647 501.4197541872591) rotate(0 5.889999866485596 12)"><text x="0" y="0" font-family="Cascadia, Segoe UI Emoji" font-size="20px" fill="#1e1e1e" text-anchor="start" style="white-space: pre;" direction="ltr" dominant-baseline="text-before-edge">0</text></g><g stroke-opacity="0.7" fill-opacity="0.7" transform="translate(390.1464750714722 124.97541277901502) rotate(0 200.25999450683594 12)"><text x="0" y="0" font-family="Cascadia, Segoe UI Emoji" font-size="20px" fill="#1e1e1e" text-anchor="start" style="white-space: pre;" direction="ltr" dominant-baseline="text-before-edge">1 codeword = 512B main + 16B spare</text></g></svg>